<svg width="54" height="46" viewBox="0 0 54 46" fill="none" xmlns="http://www.w3.org/2000/svg">
<path d="M1 3.74191C1 3.01471 1.2705 2.3173 1.75198 1.80309C2.23347 1.28888 2.8865 1 3.56743 1H39.5114C40.1923 1 40.8454 1.28888 41.3268 1.80309C41.8083 2.3173 42.0788 3.01471 42.0788 3.74191V13.3124C42.0788 14.4275 43.369 15.0471 44.2393 14.35L50.188 9.58528C51.0583 8.88818 52.3485 9.5078 52.3485 10.6229V36.6187C52.3485 37.7337 51.0583 38.3534 50.188 37.6563L44.2393 32.8915C43.369 32.1944 42.0788 32.814 42.0788 33.9291V42.1287C42.0788 42.8559 41.8083 43.5533 41.3268 44.0675C40.8454 44.5817 40.1923 44.8706 39.5114 44.8706H3.56743C2.8865 44.8706 2.23347 44.5817 1.75198 44.0675C1.2705 43.5533 1 42.8559 1 42.1287V3.74191Z" stroke="#737373" stroke-width="1.5" stroke-linecap="round" stroke-linejoin="round"/>
</svg>
