<svg width="40" height="43" viewBox="0 0 40 43" fill="none" xmlns="http://www.w3.org/2000/svg">
<path d="M24.875 4.125V1.375C24.875 1.01033 25.0198 0.660591 25.2777 0.402728C25.5356 0.144866 25.8853 0 26.25 0C26.6146 0 26.9644 0.144866 27.2222 0.402728C27.4801 0.660591 27.625 1.01033 27.625 1.375V4.125C27.625 4.48967 27.4801 4.83941 27.2222 5.09727C26.9644 5.35513 26.6146 5.5 26.25 5.5C25.8853 5.5 25.5356 5.35513 25.2777 5.09727C25.0198 4.83941 24.875 4.48967 24.875 4.125ZM31.0333 7.04688C31.2495 7.17695 31.4977 7.24421 31.75 7.24109C31.9859 7.24147 32.218 7.18111 32.4239 7.06582C32.6298 6.95053 32.8026 6.78419 32.9256 6.58281L34.3006 4.32953C34.3963 4.17534 34.4605 4.00373 34.4895 3.8246C34.5186 3.64547 34.5119 3.46237 34.4698 3.28584C34.4278 3.10931 34.3512 2.94286 34.2445 2.79607C34.1378 2.64929 34.0031 2.52507 33.8481 2.4306C33.6932 2.33612 33.5211 2.27324 33.3418 2.24559C33.1624 2.21794 32.9794 2.22607 32.8032 2.2695C32.627 2.31293 32.4611 2.39081 32.3152 2.49865C32.1692 2.60649 32.0461 2.74215 31.9528 2.89781L30.5778 5.14937C30.4825 5.30369 30.4186 5.47534 30.3899 5.65444C30.3612 5.83354 30.3682 6.01655 30.4106 6.19293C30.4529 6.3693 30.5297 6.53556 30.6366 6.68212C30.7435 6.82868 30.8783 6.95264 31.0333 7.04688ZM39.187 9.21078C39.1316 9.03889 39.0429 8.8796 38.9259 8.742C38.809 8.60439 38.666 8.49118 38.5053 8.40883C38.3446 8.32647 38.1692 8.27658 37.9892 8.26201C37.8092 8.24744 37.6281 8.26847 37.4562 8.32391L34.8781 9.1575C34.5655 9.25743 34.299 9.46586 34.1267 9.74512C33.9544 10.0244 33.8876 10.3561 33.9384 10.6803C33.9893 11.0044 34.1544 11.2998 34.404 11.5128C34.6535 11.7259 34.971 11.8428 35.2992 11.8422C35.4427 11.8416 35.5853 11.819 35.722 11.7752L38.3001 10.9416C38.4728 10.8862 38.6328 10.7973 38.771 10.6798C38.9091 10.5624 39.0227 10.4188 39.1051 10.2573C39.1875 10.0958 39.2372 9.91954 39.2513 9.73876C39.2653 9.55798 39.2435 9.37621 39.187 9.20391V9.21078ZM34.0308 16.0755C35.551 18.6904 36.1632 21.735 35.7718 24.7343C35.3803 27.7336 34.0073 30.5191 31.8668 32.6562C31.1242 35.2516 29.6339 37.571 27.582 39.3251C25.53 41.0792 23.0071 42.1905 20.3277 42.5204C17.6484 42.8503 14.9313 42.3842 12.5151 41.1803C10.0989 39.9763 8.09051 38.0877 6.74044 35.75L0.724817 25.3292C0.357525 24.6921 0.15313 23.9743 0.12976 23.2393C0.10639 22.5043 0.264768 21.7748 0.590846 21.1157C0.916924 20.4566 1.40062 19.8881 1.99905 19.4607C2.59747 19.0333 3.29212 18.7602 4.02138 18.6656L3.33388 17.4728C2.97229 16.8465 2.76811 16.1417 2.73889 15.4191C2.70967 14.6965 2.85628 13.9775 3.16612 13.3241C3.47596 12.6706 3.93978 12.102 4.51775 11.6673C5.09572 11.2326 5.77057 10.9446 6.48435 10.8281C6.12633 9.84235 6.12644 8.76206 6.48465 7.77635C6.84286 6.79065 7.53635 5.96233 8.44372 5.43641C9.27575 4.95779 10.2396 4.75924 11.193 4.87002C12.1465 4.98081 13.0391 5.39508 13.7392 6.05172C14.168 5.43272 14.7463 4.93212 15.4203 4.5964C16.0944 4.26069 16.8423 4.10076 17.5947 4.13145C18.3471 4.16214 19.0796 4.38247 19.724 4.77197C20.3685 5.16146 20.9041 5.7075 21.2811 6.35938L23.3436 9.93266C23.7901 9.34791 24.3742 8.88248 25.0438 8.57767C25.7134 8.27286 26.448 8.13811 27.1822 8.18538C27.9165 8.23265 28.6277 8.46048 29.2527 8.84865C29.8777 9.23681 30.3972 9.77329 30.7651 10.4105L34.0308 16.0755ZM15.9237 9.45312L16.9429 11.2183C17.2833 11.5291 17.5732 11.8909 17.8023 12.2908L19.8648 15.8572C20.5427 14.9768 21.5222 14.3781 22.6148 14.1763L18.9006 7.73438C18.6727 7.33962 18.2973 7.05158 17.857 6.93361C17.4167 6.81564 16.9475 6.8774 16.5528 7.10531C16.158 7.33324 15.87 7.70864 15.752 8.14894C15.6341 8.58924 15.6958 9.05836 15.9237 9.45312ZM9.18966 10.1664L10.2089 11.9333L10.2639 11.9831C10.5973 11.5003 11.0228 11.0881 11.516 10.7702C12.0092 10.4522 12.5602 10.2348 13.1376 10.1303L12.1665 8.44766C11.9966 8.15323 11.7432 7.91581 11.4383 7.76542C11.1334 7.61503 10.7908 7.55843 10.4538 7.60277C10.1167 7.6471 9.8004 7.79039 9.5448 8.01451C9.2892 8.23863 9.10579 8.53352 9.01779 8.86188C8.95859 9.07986 8.9433 9.30744 8.97281 9.53139C9.00232 9.75534 9.07603 9.97119 9.18966 10.1664ZM29.2733 31.723C29.6508 30.3279 29.748 28.8717 29.5591 27.4388C29.3703 26.0059 28.8993 24.6247 28.1733 23.375L24.9076 17.7186C24.6855 17.3378 24.3256 17.0569 23.9023 16.934C23.479 16.8111 23.0246 16.8555 22.6331 17.0581C22.2416 17.2607 21.9429 17.606 21.7987 18.0226C21.6546 18.4391 21.676 18.8952 21.8586 19.2964L23.8214 22.6875C24.0037 23.0036 24.053 23.3792 23.9584 23.7317C23.8638 24.0842 23.6331 24.3846 23.3169 24.567C23.0008 24.7493 22.6252 24.7986 22.2727 24.704C21.9203 24.6094 21.6198 24.3786 21.4375 24.0625L15.4218 13.6692C15.1858 13.2955 14.8149 13.0271 14.3862 12.9197C13.9574 12.8123 13.5038 12.8742 13.1195 13.0926C12.7352 13.311 12.4498 13.669 12.3226 14.0923C12.1954 14.5156 12.2361 14.9716 12.4364 15.3656L16.6697 22.6875C16.7657 22.844 16.8293 23.0182 16.8569 23.1997C16.8845 23.3812 16.8755 23.5665 16.8303 23.7444C16.7852 23.9224 16.7048 24.0896 16.594 24.236C16.4833 24.3824 16.3443 24.5052 16.1853 24.597C16.0263 24.6888 15.8505 24.7479 15.6683 24.7707C15.4861 24.7935 15.3012 24.7796 15.1245 24.7298C14.9477 24.68 14.7828 24.5952 14.6393 24.4806C14.4959 24.366 14.3768 24.2239 14.2892 24.0625L8.69122 14.3791C8.57919 14.182 8.42929 14.0091 8.25015 13.8702C8.07101 13.7313 7.86616 13.6292 7.64741 13.5699C7.42866 13.5105 7.20033 13.4949 6.97555 13.5242C6.75077 13.5534 6.53399 13.6268 6.33769 13.7401C6.14139 13.8534 5.96945 14.0045 5.83176 14.1845C5.69408 14.3646 5.59337 14.5701 5.53543 14.7892C5.47749 15.0084 5.46347 15.2368 5.49418 15.4614C5.52489 15.686 5.59971 15.9023 5.71435 16.0978L11.9018 26.8159C11.9921 26.9724 12.0507 27.145 12.0743 27.3241C12.0978 27.5031 12.0859 27.6851 12.0391 27.8595C11.9924 28.034 11.9117 28.1975 11.8017 28.3408C11.6918 28.484 11.5547 28.6042 11.3983 28.6945C11.2418 28.7848 11.0692 28.8434 10.8901 28.867C10.711 28.8905 10.5291 28.8786 10.3547 28.8318C10.1802 28.785 10.0167 28.7044 9.87342 28.5944C9.73015 28.4845 9.60994 28.3474 9.51966 28.1909L6.08216 22.2372C5.85262 21.8456 5.47753 21.5608 5.03874 21.4448C4.59995 21.3288 4.13309 21.391 3.74003 21.618C3.34697 21.8449 3.05963 22.2181 2.94072 22.6561C2.8218 23.0941 2.88096 23.5614 3.10529 23.9559L9.12091 34.3767C10.2087 36.2611 11.8308 37.7806 13.7822 38.743C15.7336 39.7054 17.9266 40.0674 20.0838 39.7834C22.241 39.4993 24.2655 38.5819 25.9012 37.1471C27.5369 35.7124 28.7104 33.8247 29.2733 31.723ZM31.6486 17.4436L28.3829 11.7872C28.1534 11.3956 27.7783 11.1108 27.3395 10.9948C26.9007 10.8788 26.4339 10.941 26.0408 11.168C25.6478 11.3949 25.3604 11.7681 25.2415 12.2061C25.1226 12.6441 25.1817 13.1114 25.4061 13.5059L26.4218 15.2677C26.7621 15.5799 27.0519 15.9428 27.2812 16.3436L30.5468 22C31.4644 23.5858 32.0563 25.3388 32.2879 27.1562C32.936 25.5973 33.2155 23.9098 33.1046 22.2251C32.9937 20.5405 32.4954 18.9041 31.6486 17.4436Z" fill="#D9D9D9"/>
</svg>
