<svg width="current" height="current" viewBox="0 0 84 81" fill="none" xmlns="http://www.w3.org/2000/svg">
<path d="M70.233 64.5494C64.1361 70.6464 56.0846 74.3394 47.5513 75.0185L47.5512 39L47.5513 2.98154C56.0846 3.6606 64.1361 7.35362 70.233 13.4506C77.0092 20.2267 80.816 29.4171 80.816 39C80.816 48.5829 77.0092 57.7733 70.233 64.5494Z" fill="#D1FD0A" stroke="#D1FD0A" stroke-width="5.73529"/>
<path d="M37.6557 44.7003C39.5887 44.7004 41.1557 43.1335 41.1558 41.2005C41.1559 39.2675 39.5889 37.7004 37.6559 37.7003L37.6557 44.7003ZM-0.000126603 44.699L37.6557 44.7003L37.6559 37.7003L0.000126603 37.699L-0.000126603 44.699Z" fill="#0627F0"/>
<path d="M34.1582 76.7814L34.1582 80.2814L41.1582 80.2814L41.1582 76.7814L34.1582 76.7814ZM34.1582 1.47437L34.1582 76.7814L41.1582 76.7814L41.1582 1.47437L34.1582 1.47437Z" fill="#0627F0"/>
<path d="M40.1311 43.6738C41.498 42.307 41.498 40.0909 40.1311 38.7241C38.7643 37.3573 36.5482 37.3573 35.1814 38.7241L40.1311 43.6738ZM35.1814 38.7241L7.06708 66.8384L12.0168 71.7881L40.1311 43.6738L35.1814 38.7241Z" fill="#0627F0"/>
<path d="M35.3772 41.7836C36.8443 43.0423 39.0539 42.8735 40.3126 41.4065C41.5713 39.9395 41.4025 37.7298 39.9355 36.4711L35.3772 41.7836ZM3.9455 14.8147L35.3772 41.7836L39.9355 36.4711L8.50372 9.50219L3.9455 14.8147Z" fill="#0627F0"/>
</svg>
