<svg width="current" height="current" viewBox="0 0 284 59" fill="none" xmlns="http://www.w3.org/2000/svg">
<path fill-rule="evenodd" clip-rule="evenodd" d="M136.361 58.3679H186.464L189.572 43.7415L139.074 43.7837L136.361 58.3679ZM140.77 34.671L185.201 34.7548L187.954 22.4668H143.04L140.77 34.671ZM144.661 13.7552H195.946L198.87 0H147.22L144.661 13.7552ZM142.134 0H118.151L105.745 58.3679H131.275L142.134 0ZM23.1562 0H0L3.34352 58.3679H34.3279L50.8211 29.0693L54.8123 58.3679H85.7966L113.953 0H90.7969L72.5712 38.3312L67.2188 0H46.6406L25.0868 38.3312L23.1562 0ZM283.74 0H203.021L190.615 58.3679H271.334L274.442 43.7415L219.495 43.7874L221.435 34.6631L270.071 34.7548L272.824 22.4668H224.027L224.037 22.421L225.879 13.7552H280.816L283.74 0Z" fill="black"/>
</svg>
